<svg xmlns="http://www.w3.org/2000/svg" viewBox="0 0 574.04 574.47"><defs><style>.cls-1{fill:#fff;fill-rule:evenodd;}</style></defs><title>Recurso 36</title><g id="Capa_2" data-name="Capa 2"><g id="Capa_1-2" data-name="Capa 1"><path class="cls-1" d="M408.51,384.48c-5.68,15.24-14.3,32.19-29.07,46.39-16.61,15.95-37.16,26.16-48.77,41.29a49.5,49.5,0,0,0-6.49,10.49,53.6,53.6,0,0,0-3.82,23.51c.48,7.7.73,21.17,3,24.57,1.82,2.68,12.71,1,14.18-5.29,1-4.38-2.72-6.31-6-9.75-4.9-5.09-4.13-12.2.06-15.89,2.51-2.22,6.47-2.88,10.5-1.9,17.05,2.89,27.88,14.7,36,18.21,2,.85,7.45.62,9.69-1.21a6.73,6.73,0,0,0,2.44-7.84c-1.52-5-6.88-9.17-11.7-11.33a98.62,98.62,0,0,0-17.81-5.68c-7.19-1.44-16.85-2.09-16.61-2.19,21.19-6.87,26.2-5,41.33,3.5,10.42,5.87,25,5.59,28.6,2.4,12.36-10.94,12.79-38.33-7.81-40.5-8.61-.9-14.71,1.83-16.68,8.21-1.42,4.62.77,10.61.53,10.59-8.41-1-9.8-18,2-23.81,12.2-6,47.94-.06,50,20.6.69,6.92-.07,11.68-13.05,16.63-.4.16,7.88,7.85,20.39,3,8.63-3.37,5.36-22.36,5.51-22.37,5.32-.33,11.43,17.75.48,26.6-7.53,6.09-25.06,1.11-25,1.33,1.44,11.29,24.73,21.67,38.47,11.17,9.89-7.55,13.86-19.15,9.6-28.62-4.67-10.36-15.24-20.29-23.84-26.5-7.13-5.14-14-8.12-12.83-9.22.63-.59,19.53,10.62,26.47,15.5,10.63,7.47,25.45,19.53,33.08,20.76,4.66.75,9.86.31,12-2.41,1.91-2.39,1.26-6.73-1.54-11.24-3-4.85-50.72-28.56-50.08-29.85.55-1.12,4.29.72,11.77,3.43,20,7.26,44.23,35.18,70.73,21.94,4.51-2.26,9.28-8.15,8.67-8.29-1.1-.24-49.86-10.5-48.4-13.61.29-.63,43,12.55,60.16,7.43.06,0,5.59-3.29,7.68-8.2,2.16-5.06,1.71-11.05,1.39-11.06-33.77-.47-109.27,1.19-108.88-5,.07-1.09,52.71,1.23,70-9.05,6.38-3.79,11.06-14.43,4-19.84-1.87-1.45-6.17-2.54-10.73-2.45a68.59,68.59,0,0,1-25.78,16.4c-11.61,4.15-26.84,6.74-33.29,6.41-.41,0,15.27-3.55,27.74-7.75,7.08-2.39,23.61-11.74,24.42-16.1.44-2.39-.25-9.07,0-13.16.37-5.27,2-6.82,1.66-6.95-2.37-1-6.88-9.53-7.07-9.07a171,171,0,0,1-9.36,15.64c-7.09,10.74-20.7,21.16-42.9,32-.46.22.89-1,6.31-6,8-7.4,23.53-17.51,30.3-25.56,4.64-5.51,9.26-13.79,9.27-14.85a73.24,73.24,0,0,1-9.31.7c-3.34,0-8-.56-11.42-2.29-.47-.24-12.51,20.51-15.71,23.65-5,4.89-10.65,7-10.91,8.24-.1.53,13.9-17.09,17.54-24.57,4-8.16,4.46-12.66,4.24-12.65-1.52,0-3.82.31-6.18.3-2.68,0-5.35-.3-5.38-.08-1.1,6.18-8.67,24.45-16.23,31.16-.36.33,1.46-8.78,5-16.3,1.7-3.56,6.08-11.55,5.32-18.23-.38-3.34-1.47-5.78-4.39-6.84-2-.72-6.8-.2-8.15.78-2.41,1.75-3.54,2.68-4.83,5.15-5.66,10.92-10.6,51.44-14.24,51-.63-.09-.69-6.59-.27-15.22.24-5,1.85-11.34,2.5-16.48,1.07-8.39,4-15.93,4-16.9,0-6.26-.51-7.95-3.37-8.82a9.86,9.86,0,0,0-11,4.39c-2,3.32-2.38,10.71-3.45,15.75-4.19,19.77-.92,38.72-17.38,57.51-.32.38,7.62-27.5,2.52-35.56Z"/><path class="cls-1" d="M166,382c5.19,13.93,13.42,31,25.91,44.74,9.1,10,18.82,16.51,28.92,23.67,12.33,8.75,21.48,15.47,28.11,29.37a55.11,55.11,0,0,1,4.76,26.34c-.48,7.7-.73,21.16-3,24.57-1.81,2.68-12.71,1-14.18-5.29-1-4.38,2.72-6.31,6-9.75,4.9-5.09,4.13-12.2-.06-15.89-2.5-2.22-8.62-2.41-12.66-1.43-16.22,3.95-26.06,17.41-35.91,18.68a10.81,10.81,0,0,1-7.62-2.15c-2.71-2.21-4.14-6-3.2-9.06,1.53-5,8.47-8.51,13.3-10.67a93.42,93.42,0,0,1,17-5.12c7.19-1.44,18.63-1.72,18.38-1.82-16-9.87-30.22-1.83-46.56,5.76-10.85,5-22,3.53-25.61.33-12.36-10.94-12.32-38.89,8.28-41.06,8.61-.9,15.41,1.54,17.38,7.93,1.43,4.62-1.47,10.89-1.23,10.86,8.18-.55,14.95-16.46-2.22-24.46-4.24-2.09-10.53-3.17-17.9-1.92-13.82,2.33-30.31,12.8-30.31,23.17,0,7,4.28,14.5,11.46,16.64.42.12-10,8.15-18.34,2.78-9.86-6.37-6.12-23.66-6.25-23.59-3.17,1.64-12.74,19.16-1.79,28,7.53,6.08,25.06,1.1,25,1.32-1.44,11.3-25.74,20.93-38.37,11.18-9.85-7.61-11.44-21.12-7.18-30.58,4.67-10.36,13.56-17.58,22.17-23.79,7.13-5.14,15.66-7.18,12-10-.69-.52-19.53,10.62-26.47,15.5-9.56,6.82-16.17,17-29,21.39-3.61.92-20.79-4.78-18.42-10.45.88-2.13,15-9.33,25.62-15.34,15.69-8.86,30.15-15,28.28-18.34-.6-1.09-4.29.72-11.77,3.43C80.4,443.1,56.1,470.28,29.77,459c-4.63-2-9.28-8.14-8.67-8.28,1.1-.25,49.86-10.5,48.4-13.61-.29-.63-43,12.55-60.16,7.42-.06,0-5.59-3.28-7.68-8.19C-.5,431.23,0,425.25.27,425.24c33.77-.48,109.45,5.47,108.88-5-.06-1.09-52.7,1.22-70-9.05-6.38-3.79-11.06-14.43-4-19.85,1.87-1.44,6.17-2.53,10.74-2.44.22,0,11.12,11.78,27.74,17.71,11.6,4.15,24.87,6.92,31.32,5.1.4-.12-14.15-3.88-26.43-8.41-7.22-2.66-24.75-12.9-24.89-14.23s.25-8.88,0-13c-.37-5.27-1.6-8.69-1.3-8.82,2.37-1,7-8.46,7.36-8.41s3.73,8.38,8.52,15.64c7.08,10.73,20,21,42.24,31.77.46.22-.89-1-6.31-6-8-7.4-23.53-17.52-30.3-25.56-4.64-5.52-9.25-13.79-9.27-14.85a72.32,72.32,0,0,0,9.31.69c3.34,0,8.14,0,11.89-1.53.35-.14,11.11,19.29,14.3,22.43,5,4.88,12.62,8.67,12.88,9.93.1.52-12.59-17.19-16.23-24.67-4-8.15-5.21-13.78-5-13.78,1.52,0,2.24.32,4.6.31,2.67,0,6.74-.39,6.78-.18,1.09,6.18,9.88,27,17.44,33.7.36.32-2.77-11.23-6.35-18.75-1.7-3.55-5.33-10.23-6-18.31-.26-3.35,1.43-4.88,4.35-5.93,2-.71,5.89-.27,7.54,0a7.1,7.1,0,0,1,3.72,1.71c8.22,7.78,12.4,54.66,15.36,54.41.62-.05.68-6.58.26-15.21-.24-5-1.85-11.34-2.5-16.48-1.07-8.39-3.83-15.95-4-16.91-1.06-5.83-.55-7.52,2.31-8.39,3.24-1,10.19-.65,12.89,3.75,2,3.32,1.53,10.93,2.6,16,4.19,19.77,7.45,44.34,17.26,55.89a116.63,116.63,0,0,1-3.33-18.07c-.54-6.52.52-13.22,1.38-18.31Z"/><path class="cls-1" d="M26,394.81c-5.29-13.45,1.19-35.63,18.68-28.74,6.55,2.58,6.33,16.5-2.44,16.86-7.32.3-12.77,1.75-16.24,11.88Z"/><path class="cls-1" d="M26.11,358.11c-.21-6.18,1.56-12.19,7.8-15.73,7.38-4.19,19.84-3.24,22,7.68,1.77,9.05-7.67,13-11.48,11.12-5.52-2.7-4.49-7.28-8.74-8.59s-6.81,1.74-9.55,5.52Z"/><path class="cls-1" d="M35.24,335.94c6.4-9.7,16-18.62,27-18.62,10.22,0,17.74,3,23.51,9.93,3.17,3.79,5.36,15.46,1.38,21-3.84,5.35-11.35,7-17.61,4.69-5.25-1.95-9.43-7.07-11.84-11.65-1.87-3.54-3.58-6.14-6.66-7.06-4.67-1.37-11-.41-15.78,1.71Z"/><path class="cls-1" d="M119.08,336.53c-1.18-3.83-7.68-8-13.77-8.68a11,11,0,0,0-11.17,6c-2.58,5.67.19,13.06,7,11.72,3.84-.76,4.65-4,6.74-6.05s5.3-4.81,11.24-3Z"/><polygon class="cls-1" points="283.35 508.57 293.56 508.56 293.6 527.29 310.43 527.13 310.44 535.58 293.61 535.84 293.58 574.44 283.3 574.47 283.42 535.61 266.46 535.6 266.58 527.12 283.4 527.11 283.35 508.57 283.35 508.57"/><path class="cls-1" d="M281.63,471.52l.17-23.69,13.11-.08.15,23.49c7.75,3,11.72-.92,13.18-4.93,0-.12,5.59,12.48-1.61,19.21-2.86,2.68-10.12,2.6-10.11,3,.24,10.51-8.19,18-8.81,18.13-5.1-7.14-8.17-9.38-8.17-18.62-7.65-.13-10.56-2-13.16-6.63-3-5.33-.63-10.71,2.65-15,3.39,6.09,7,7.3,12.6,5.1Z"/><path class="cls-1" d="M150.67,305.73l24.17,0,.3,12-23.69-.1c-1.6,7.66,3.44,12.54,5.3,14,.1.08-12.44,5.69-19.24-1.46-2.7-2.85-2.95-8.7-2.77-11.41-10.5.33-17.24-6.92-16.23-7.35,3.73-3.93,7.54-6.83,16.32-8.31.07-7.64,1.88-10.57,6.54-13.2,5.3-3,11.36-.09,15.64,3.15-3.92,2.76-7.17,7.18-6.34,12.69Z"/><path class="cls-1" d="M422.84,305.7l-24.65-.07V317.5l23.78.1a13.87,13.87,0,0,1-4.86,13.84c-.11.08,11.91,5.33,19.25-1.26,4.69-4.22,2.12-11,2.5-11,10.5.44,18.82-6.92,18.94-7.54-7-5.22-10-7.39-19.22-7.56,0-7.64-1-11.53-5.65-14.21-5.28-3.05-10.7-.81-15,2.39,3.89,2.8,5.81,7.94,4.93,13.44Z"/><path class="cls-1" d="M281.61,153.22l.07,22.57,13.49-.11L295,153.6c6.06-4.28,10.69,1.3,12.14,3.15.08.1,6.44-11.45-.76-18.19-2.86-2.68-10.12-2.59-10.12-3,.25-10.51-8.18-18-8.8-18.13-5.1,7.13-8.18,9.37-8.18,18.62-7.64.13-10.56,1.95-13.15,6.63-3,5.32-2.41,9.3.87,13.55,4.32-5.62,10.08-5,14.57-3Z"/><path class="cls-1" d="M170.18,325.07a7.14,7.14,0,1,1-7.25,7.13,7.2,7.2,0,0,1,7.25-7.13Z"/><path class="cls-1" d="M173.58,345.44a7.14,7.14,0,1,1-7.26,7.13,7.19,7.19,0,0,1,7.26-7.13Z"/><path class="cls-1" d="M180.37,365.8a7.14,7.14,0,1,1-7.26,7.14,7.2,7.2,0,0,1,7.26-7.14Z"/><path class="cls-1" d="M188.77,383.57a7.14,7.14,0,1,1-7.26,7.13,7.19,7.19,0,0,1,7.26-7.13Z"/><path class="cls-1" d="M199.47,400.81a7.14,7.14,0,1,1-7.25,7.14,7.2,7.2,0,0,1,7.25-7.14Z"/><path class="cls-1" d="M213.91,417.15a7.14,7.14,0,1,1-7.26,7.13,7.19,7.19,0,0,1,7.26-7.13Z"/><path class="cls-1" d="M229.62,430.3a7.14,7.14,0,1,1-7.26,7.14,7.2,7.2,0,0,1,7.26-7.14Z"/><path class="cls-1" d="M248.29,440.06A7.14,7.14,0,1,1,241,447.2a7.2,7.2,0,0,1,7.25-7.14Z"/><path class="cls-1" d="M267.4,446.43a7.14,7.14,0,1,1-7.26,7.13,7.19,7.19,0,0,1,7.26-7.13Z"/><path class="cls-1" d="M306.45,446.43a7.14,7.14,0,1,1-7.26,7.13,7.19,7.19,0,0,1,7.26-7.13Z"/><path class="cls-1" d="M361.06,417.25a7.14,7.14,0,1,1-7.26,7.14,7.2,7.2,0,0,1,7.26-7.14Z"/><path class="cls-1" d="M344.58,430.05a7.14,7.14,0,1,1-7.26,7.13,7.19,7.19,0,0,1,7.26-7.13Z"/><path class="cls-1" d="M326.85,439.78a7.14,7.14,0,1,1-7.26,7.13,7.19,7.19,0,0,1,7.26-7.13Z"/><path class="cls-1" d="M374.84,400.91a7.14,7.14,0,1,1-7.26,7.13,7.19,7.19,0,0,1,7.26-7.13Z"/><path class="cls-1" d="M385.91,383.06a7.14,7.14,0,1,1-7.26,7.14,7.19,7.19,0,0,1,7.26-7.14Z"/><path class="cls-1" d="M393.77,365a7.14,7.14,0,1,1-7.26,7.14,7.2,7.2,0,0,1,7.26-7.14Z"/><path class="cls-1" d="M400.57,345.24a7.14,7.14,0,1,1-7.26,7.13,7.2,7.2,0,0,1,7.26-7.13Z"/><path class="cls-1" d="M404.09,325.5a7.13,7.13,0,1,1-7.26,7.13,7.2,7.2,0,0,1,7.26-7.13Z"/><path class="cls-1" d="M170.18,284.28a7.14,7.14,0,1,1-7.25,7.14,7.2,7.2,0,0,1,7.25-7.14Z"/><path class="cls-1" d="M173.37,263.67a7.14,7.14,0,1,1-7.26,7.14,7.2,7.2,0,0,1,7.26-7.14Z"/><path class="cls-1" d="M180.81,243.7a7.14,7.14,0,1,1-7.26,7.14,7.2,7.2,0,0,1,7.26-7.14Z"/><path class="cls-1" d="M189.1,225.22a7.14,7.14,0,1,1-7.26,7.14,7.2,7.2,0,0,1,7.26-7.14Z"/><path class="cls-1" d="M199.72,207.59a7.14,7.14,0,1,1-7.26,7.14,7.2,7.2,0,0,1,7.26-7.14Z"/><path class="cls-1" d="M213.33,191.66a7.14,7.14,0,1,1-7.26,7.13,7.19,7.19,0,0,1,7.26-7.13Z"/><path class="cls-1" d="M229.48,179.33a7.14,7.14,0,1,1-7.26,7.14,7.2,7.2,0,0,1,7.26-7.14Z"/><path class="cls-1" d="M248,169.14a7.13,7.13,0,1,1-7.26,7.13,7.19,7.19,0,0,1,7.26-7.13Z"/><path class="cls-1" d="M267.1,162.55a7.14,7.14,0,1,1-7.26,7.14,7.2,7.2,0,0,1,7.26-7.14Z"/><path class="cls-1" d="M404.39,283.64a7.14,7.14,0,1,1-7.26,7.14,7.2,7.2,0,0,1,7.26-7.14Z"/><path class="cls-1" d="M400.14,263.68a7.14,7.14,0,1,1-7.26,7.13,7.19,7.19,0,0,1,7.26-7.13Z"/><path class="cls-1" d="M393.55,243.92a7.14,7.14,0,1,1-7.26,7.13,7.19,7.19,0,0,1,7.26-7.13Z"/><path class="cls-1" d="M385.89,224.5a7.14,7.14,0,1,1-7.26,7.14,7.19,7.19,0,0,1,7.26-7.14Z"/><path class="cls-1" d="M374,207.81a7.14,7.14,0,1,1-7.26,7.14,7.2,7.2,0,0,1,7.26-7.14Z"/><path class="cls-1" d="M360.61,192.3a7.14,7.14,0,1,1-7.26,7.14,7.19,7.19,0,0,1,7.26-7.14Z"/><path class="cls-1" d="M344.46,179.55a7.14,7.14,0,1,1-7.26,7.14,7.19,7.19,0,0,1,7.26-7.14Z"/><path class="cls-1" d="M326.6,169.35a7.14,7.14,0,1,1-7.25,7.13,7.2,7.2,0,0,1,7.25-7.13Z"/><path class="cls-1" d="M306.84,163.41a7.14,7.14,0,1,1-7.25,7.13,7.19,7.19,0,0,1,7.25-7.13Z"/><path class="cls-1" d="M548.23,394.6c5.07-13.46-1.14-35.64-17.9-28.75-6.28,2.58-6.07,16.5,2.33,16.86,7,.3,12.25,1.75,15.57,11.89Z"/><path class="cls-1" d="M548,357.9c.2-6.18-1.49-12.2-7.46-15.74-7.07-4.19-19-3.23-21,7.68-1.69,9.05,7.35,13,11,11.12,5.28-2.7,4.29-7.27,8.36-8.59s6.52,1.74,9.14,5.53Z"/><path class="cls-1" d="M539.33,335.93c-6.4-9.69-16-18.62-27-18.62-10.21,0-17.73,3.05-23.5,9.94-3.17,3.78-5.37,15.45-1.39,21,3.85,5.34,11.35,7,17.61,4.68,5.25-1.94,9.43-7.07,11.84-11.64,1.87-3.54,3.58-6.15,6.67-7.06,4.66-1.38,11-.42,15.78,1.7Z"/><path class="cls-1" d="M455.27,336.52c1.18-3.82,7.69-8,13.77-8.68a11.06,11.06,0,0,1,11.18,6c2.57,5.66-.2,13.06-7,11.72-3.84-.76-4.65-4-6.74-6.05s-5.3-4.81-11.24-3Z"/><path class="cls-1" d="M281.69,310.83l5.07,0-.14,128.34c-3.11-1.78-5.74-3.3-7.93-7.68-6.89-13.78-5.24-28.75.95-42.75-5.16,1.66-9.9.72-13-2.52-5.89-6.19-6-16.89-1.11-24,.42-.62,6.44,8.92,15.7,2.43l.45-53.85Z"/><path class="cls-1" d="M280,305.76v3.45l-94.6,0c4.52-8.77,13-14.67,22.25-14.92,6.92-.2,13.36,3.43,19.69,8.09-2.87-6.09-.91-13.91,1.51-17,4.63-5.94,14.38-5.32,18.78-1.09.08.08-4.23,2.81-5.92,7.72-1.36,4-1.13,9.68,5.11,13.72Z"/><path class="cls-1" d="M295.23,317.61l0-3.36,96.31,0c-2.93,10.74-13.92,15-23.14,15.25-6.92.2-13.35-4-19.68-8.61,2.86,6.1,1,15.32-1.42,18.43-4.64,5.93-13.64,5.59-19.06,0-.08-.08,4.41-3.18,6.1-8.1,1.36-3.94,1.13-9.68-5.11-13.72l-34,.09Z"/><path class="cls-1" d="M293.35,311l-4.63-.14-.24-126.68a18,18,0,0,1,8.54,8.43c6.89,13.78,5.29,28.28-.91,42.28,5.16-1.65,10.38-.52,13.46,2.72,5.9,6.18,6,15.85,1.12,23-.42.61-7.94-8.26-17.2-1.77l-.14,52.2Z"/><path class="cls-1" d="M324.28,304.08a9.61,9.61,0,0,0,7.87-4.4c3.69-5.9-.3-11.57-5.07-15,5.5-3.34,9.14-6.38,16.45-3.39,6.53,2.68,8.55,11.77,7.74,19.41,4.69-5.62,12.38-6.9,19.76-7.08,5.21-.14,18.55,6.64,20.79,16,1.56-18.46-11.6-65.65-29.5-87.3l-65.59,81.78,27.55,0Z"/><path class="cls-1" d="M310.52,361.06c3.32,3.69,14.15,31.29-13.15,29.25,3.64,2.5,16.8,25.84-6.14,48.48,25.26,1,51.51-13,71.59-38.66l-67.6-79.29c0,7.56-.05,26.19,0,38.16,0,3.06,3.7,7.41,7,7.53,3.53.13,6.82-3,8.34-5.47Z"/><path class="cls-1" d="M249.5,340c-3.16,6-25.56,11.09-24.47-16.3-3.59,3.56-22.92,16.58-41-7.41-1.36,25.22,11.64,65,28.79,84.19L280,319.29l-16.66,0c-4.84,0-6.82.05-11,0a10.52,10.52,0,0,0-9.83,8c-.92,4.59,3.83,10.11,7,12.68Z"/><path class="cls-1" d="M265.53,263.57c-3.32-3.69-10.28-30.67,13-30.93-5.92-6-11-31.57,6.1-48.57-25.45.66-50.74,12.42-70.83,38.12l67.57,80.28c0-6.25-.13-25.77-.22-37.7,0-3.06-2.7-7.81-6-7.94-3.53-.13-8.09,4.28-9.61,6.74Z"/><path class="cls-1" d="M429,177.23c10.45-7.93,29.41-.07,22.39,18.28-2,5.14-9.5,7.75-16.49,2.55,2.83-2.26,2.69-9.63-2.13-11.08-3.82-1.15-10,.19-9.76,7.4.09,2.93,5.11,7.81,7,9.29,8.48,6.62,24.95,5.55,36.32,7.63,6.6,1.21,14.18,3.6,20.37,7.64,13.62,8.88,23.36,24.11,21.44,40.73-3.24,28-24.89,31.24-40.86,34.58,12.94-10.32,14.68-20,13.71-27.78-1.91-15.43-21-23-30.17-9.77-3.39,4.89-1.75,12.22,4.58,13.79-1.44-12.14,8.53-14.93,13.95-9.83,3,2.86,4.29,8.71,2.17,15.56-2.71,8.78-10.38,12-16.47,12.26-12.92.62-28-14.39-24-34.75,2-10,11.1-19.71,23.89-21.66a35,35,0,0,1,13.67.76c11.42,3.06,16.65,12.23,20.27,23.13,1.36-21-16.72-34.65-38.34-30.24-18.57,3.78-32.34,31-32.34,48.26-1.69-11.06-4.88-23.89-9.55-34.47,3.54-1.63,5.27-3.51,11.14-6.36a63.73,63.73,0,0,0-15.27,1.27c-1.48-9.68-7.53-17.14-17-29.28,11.75,1.83,28.41,7.89,49.61,8-11.67-4.86-27.28-15.39-20.43-27,5.5-9.32,19.93-6.14,26.86-1,.12-6.4-6.48-9.33-14.63-8Z"/><path class="cls-1" d="M146.79,176.25c-7.08-5.67-29.46.64-22.44,19,2,5.14,10.86,7.75,16.35,2.13-2.83-2.26-3.25-8.79,1.56-10.24,3.83-1.15,9.6.2,9.39,7.4-.08,2.93-4.36,7.63-6.26,9.11-8.47,6.61-24.94,5.54-36.31,7.62-6.61,1.21-14.19,3.61-20.38,7.65-13.61,8.88-23.36,24.1-21.44,40.72,3.24,28,24.89,31.25,40.87,34.58-12.95-10.31-14.69-20-13.72-27.77,1.92-15.43,21-23,30.17-9.77,3.39,4.89,1.75,12.21-4.58,13.79,1.44-12.15-8.53-14.94-14-9.84-3,2.86-4.29,8.72-2.17,15.56,2.72,8.79,10.38,12,16.47,12.27,12.92.61,28-14.39,24-34.76-2-10-11.11-19.7-23.9-21.65a34.75,34.75,0,0,0-13.66.76c-11.43,3-16.65,12.23-20.28,23.13-1.36-21,16.91-33.91,38.53-29.5,18.57,3.78,26.73,17.57,32.15,47.52,2.35-10.32,4.7-22.86,9.37-33.44-3.54-1.63-4.62-2.1-9.55-7.49a55.79,55.79,0,0,1,13.87,1.36c1.48-9.68,7.53-17.14,17-29.27-12.68-.05-27.94,6.58-47.55,7,11.86-3.45,24.25-14,17.06-25.24-5.17-8.12-18.18-6.19-24.8-2.26,2.32-6.6,7.23-7.93,14.26-8.36Z"/><path class="cls-1" d="M245.15,129l4.67,3.82c8.83-12,22.48-16.13,37.68-16.13s29.56,5.53,36.4,16.76l4.46-4.14C319,114,301.57,110.52,287.82,110.52c-14.17,0-32.39,3.57-42.67,18.46Z"/><path class="cls-1" d="M243,123.25,218.41,99.06l23.25,2.87-2.45-21.32,18.68,8.7,2.76-19.1,15.28,14.68,11.94-19.78L300.75,84.4,313,71.87l5.36,17.86,16.17-6-2.15,20.45,19.73-3.58-20.59,23.13c-10.65-11.32-20.52-17-43.11-17.49-18.19-.45-34.71,3.86-45.4,17.06Z"/><path class="cls-1" d="M214.48,90.68a5.06,5.06,0,1,1-5,5.06,5,5,0,0,1,5-5.06Z"/><path class="cls-1" d="M235.63,71.28a5,5,0,1,1-4.95,5,5,5,0,0,1,4.95-5Z"/><path class="cls-1" d="M258.73,59.49a5.31,5.31,0,1,1-5.4,5.31,5.36,5.36,0,0,1,5.4-5.31Z"/><path class="cls-1" d="M288,54.3a5.42,5.42,0,1,1-5.73,5.41A5.58,5.58,0,0,1,288,54.3Z"/><path class="cls-1" d="M313.28,59.87a5.41,5.41,0,1,1-5.2,5.41,5.31,5.31,0,0,1,5.2-5.41Z"/><path class="cls-1" d="M338.17,73a5.23,5.23,0,1,1-5.5,5.22,5.37,5.37,0,0,1,5.5-5.22Z"/><path class="cls-1" d="M357.47,91.24a5.5,5.5,0,1,1-5.24,5.49,5.37,5.37,0,0,1,5.24-5.49Z"/><path class="cls-1" d="M180,194.33c5.73,3.34,18.78-.22,20.11-9.34-2.89,1.28-3.88,2-6.95,2,4.11-2.49,9.36-11.79-.64-19.94-1.11,3-2.92,7.28-5.92,7.28,3.31-5.82,1.11-11.38-2.23-15.09a7.56,7.56,0,0,1-5.61,8.57c2-4.15,2.95-11.5-1.68-13.91-1.08,3.26-6.55,8-9.81,2.86a6.32,6.32,0,0,1,1.57-8.3c2.62-2,7.11-2.1,9.73-2,3.05.14,6.88.58,9.34,1.64,5,2.19,3,4.73-2.92,4,4.93,5.68,9.93,11.22,13.8,15.23,1.87-.91,6.82-2.92,11.13-4.93,8.21-3.82,9.79-3,11.05-.32.91,2-.64,2.88-3.76,4.67a95,95,0,0,1-13.65,6.15l.21,12.41,38.1-24.61c-17.16-13-35.47-25.08-51.05-39.79-2-1.85.72-5.51,3.72-2.76.85.79,3.06,2.18,4.56,3.4,9.63,7.82,18.53,14.21,28.23,22.07l6.37.21.21-14.43c-8.93,0-14.58-1.25-20.37-4.13-2.24-1.12-8-3.79-9.76-7.16,6.91.9,9.77-3.54,9.89-5.81.18-3.78-5.24-7.73-15-7.83-4.49,0-9.34,1.81-12,4.91-3,3.52-4.28,8.6-2.24,12.38,3,5.65,10,10,14.86,14.22,10.43,9.21-8.61-.85-12.64-3.18-4.25-2.46-9.61-5.61-13.26-7.85-2.09-1.29-12.23-8.68-14-10.4l.22,14.43c7.07,6,29.9,13.74,40.51,17.77,2,.76,5.44,3,5.34,4.25-.33,4.28-17.65-6-19.75-6.75-7.1-2.55-28.12-4.27-28.12,7.54,0,6.63,3,6.94,6.1,9.6,2.51,2.12.39,3.12-.73,3.6-2.13.92-4.91-.64-7.39-1.37,1.22,5.91,4.5,9.54,14.3,8.85.09,3.65-7.06,3.95-11.06,1.54,0,6,10.73,11.59,15.65,7.91-.16,3.81-2.11,4.32-5.3,5.19,2.17,2,6.09,4,9.34,4,2.58,0,4.93-.1,7.21-1.27a10.94,10.94,0,0,1-5.73,4.46Z"/><path class="cls-1" d="M394.49,194.56c-5.73,3.34-18.77-.23-20.11-9.34,2.9,1.28,3.88,2,6.95,2-4.11-2.48-9.36-11.78.64-19.94,1.11,3,3.2,7.85,6.2,7.85-3.31-5.82-.73-11.19,2.61-14.9a13.73,13.73,0,0,0,1.16,4.19,7.52,7.52,0,0,0,4.35,4.19c-.9-3.58-3.51-12.06,1.12-14.47,1.09,3.25,6.55,8,9.82,2.86a6.34,6.34,0,0,0-1.58-8.31c-2.62-2-7.11-2.1-9.73-2-3.05.14-6.88.58-9.34,1.64-5.05,2.18-3,4.73,2.92,4-4.93,5.68-9.93,11.22-13.8,15.23-1.87-.91-6.82-2.92-11.13-4.93-8.21-3.82-9.8-3-11-.32-.92,2,.63,2.88,3.75,4.67a96.67,96.67,0,0,0,13.65,6.15l-.21,12.41-38.1-24.61c17.16-13,35.47-25.08,51.05-39.79,2-1.85-.72-5.51-3.72-2.76-.85.79-3.06,2.18-4.56,3.4-9.63,7.81-18.53,14.21-28.23,22.06l-6.37.22-.21-14.43c8.93,0,14.59-1.25,20.37-4.13,2.24-1.12,8-3.79,9.76-7.16-6.91.9-9.77-3.54-9.89-5.81-.18-3.79,5.24-7.73,15-7.83,4.49,0,9.33,1.8,12,4.91,3,3.52,4.28,8.6,2.24,12.38-3,5.65-10,10-14.85,14.22-10.44,9.2,8.6-.86,12.63-3.18,4.25-2.46,9.61-5.61,13.26-7.85,2.1-1.29,12.23-8.68,14-10.4l-.22,14.43c-7.07,6-29.9,13.74-40.51,17.76-2,.77-5.44,3-5.35,4.25.34,4.28,17.67-6,19.76-6.74,7.1-2.55,28.12-4.27,28.12,7.54,0,6.63-3,6.94-6.1,9.6-2.51,2.12-.39,3.11.73,3.6,2.13.92,4.91-.64,7.39-1.38-1.22,5.92-4.32,9.08-14.12,8.38-.27,5.44,6.88,4.8,10.88,2,0,6-10.73,11.6-15.65,7.91.16,3.82,2.11,4.32,5.3,5.2-2.17,2-6.09,4-9.33,4-2.59,0-4.94-.1-7.22-1.27a11,11,0,0,0,5.73,4.46Z"/><path class="cls-1" d="M316.15,11.55c.41-2.67,4.37-7.76,9.08-9.69,5.44-2.24,17.19-4.24,17.19,5.3,0,8.17-14.81,7.86-13.78,21.45,1.05,13.85,32.14,8.12,47.58,15.29C391.4,51,394.8,63.67,396.49,88.46c9.46-12.24,27.11-19.59,45-19.06,28.9.85,40.57,19.54,44.3,39.25,3.32,17.62-13.85,36.07,12.53,46.64-5.66,3.3-12.57,3.89-16.76-2.13-3.43,16,3.34,26.65,15.6,30.87,8.29,2.86,18.58,1,18.79,10.72.26,12.28-20.63,10.46-33.15,6.71-7.75-2.31-21-12.21-24.39-19.12-4.45-9.1-4.34-20.88-4.34-30.55-9.83,2-23.16-1.18-28.54-8-6.41-8.06-6-19.76-3.19-26.2,7.39,9.22,22.61,11.94,32.65,6.9,5.46-2.74,4.23-9.42,4.18-9.29s-9.57,6.5-17.25,5.92c-5.62-.43-11.33-2.77-13.21-6.08-2.53-4.46-2.41-10.66.56-11.8,1.07-.41,5.13,8.1,15.73,8.2a10.46,10.46,0,0,0,8.76-4.25c8.45-10.16-.36-19.69-4.89-21.53,4.29,7.29,4.08,16.09-.21,18.42-4.86,2.64-13.44.69-13.66-4-.06-1.27,1.51-3.44,2-4.67,2.72-7.07-3.33-11.59-10.24-11.56-6.26,0-10.13,3.44-12.68,5.5-4.79,3.9-16.35,17.79-16.35,23.56-6.05-10.57-13.76-14.22-27.49-15.7,2.88-5.07,5.4-8.17,5.1-13.37-.63-10.82-6-10.72-10.62-9.65-4.29,1-4.91,6.36-9.34,4.56-4.6-1.87-4.13-12.4.91-17.21a15.82,15.82,0,0,1,9.08-4.05c4.61-.59,9.05,2,12.2,4-3.46-7.54-8.05-9.47-13.06-9.41-9,.11-20.08,7.39-34.22,6.43-9.2-.63-17-5.15-20.22-11.89-3.51-7.3-1.71-18.3,1.8-23.44,4.31-6.3,10.66-8.63,15.18-11.29,3.79-2.24,6.72-4.43,1.45-4.33-3.89.08-9.62,2.53-12.38,4Z"/><path class="cls-1" d="M259.4,12.09c-.42-2.67-3.57-6.55-8-9.13-7.31-4.3-19.15-4.33-19.06,3.14.1,8.17,14.81,6.37,14,22.3-.73,13.87-31.66,7.84-47.1,15-15.19,7.06-19.14,20.7-20.83,45.48-9.47-12.23-26.55-20.51-44.49-20-28.9.85-39.45,20.28-43.17,40-.82,4.31-.3,6.23-.71,10.68-1.62,17.84,7.94,27.23-13,35.22a14.89,14.89,0,0,0,17.33-1.39c.44,17.3-3.91,25.9-16.16,30.12-8.29,2.86-18.58,1-18.79,10.72-.27,12.29,20.81,10.84,33.33,7.09,7.75-2.31,20.83-11.84,24.21-18.75,4.45-9.09,6-24.6,2.29-34.09,8.71,6.06,24.27,2.73,30.4-4.61,6.6-7.89,6.19-20.31,3.38-26.75-18,19.27-40.26,3.22-37.76-1.46.64-1.2,11.43,5.57,19.1,5,5.63-.43,10.41-2.76,12.28-6.07,2.53-4.46,2.41-10.66-.56-11.8-1.06-.41-4,9-14.61,9.13-2.85,0-8.36.19-11.28-3.31-8.44-10.16-2.82-22.22,6.29-23.41-4.29,7.29-4.08,16.1.21,18.43,4.87,2.64,13.45.69,13.66-4,.06-1.26-1.51-3.43-2-4.67-2.72-7.06,3.33-11.58,10.24-11.55,6.25,0,10.13,3.43,12.67,5.5,4.8,3.9,16.36,17.79,16.36,23.56,6.05-10.57,12.83-14.78,26.55-16.26-2.88-5.07-5.39-7.52-5.09-12.71.62-10.83,6.93-10.82,11.54-9.76,4.29,1,4.91,6.37,9.34,4.57,4.6-1.87,5-13.06-.06-17.87-2.64-2.52-5.73-2.87-8.89-2.83-5.36.07-12.14,3.1-15.3,5.11,3.94-10.26,11-9.94,16-9.87,9,.11,19.23,6.17,33.38,5.2,9.2-.62,16-4.39,19.28-11.14,3.51-7.3,2.65-19-.87-24.18-4.31-6.3-13-8.45-17.51-11.11-3.8-2.23-2.34-4.69.6-3.95a88.6,88.6,0,0,1,12.76,4.42Z"/></g></g></svg>